<svg xmlns="http://www.w3.org/2000/svg" viewBox="0 0 1920 1080"><defs><radialGradient id="g"><stop stop-color="#f0f0f0" stop-opacity=".42"/><stop offset="1" stop-color="#101010" stop-opacity="0"/></radialGradient><linearGradient id="b" x2="1" y2="1"><stop stop-color="#101010"/><stop offset="1" stop-color="#f0f010"/></linearGradient></defs><rect width="1920" height="1080" fill="url(#b)"/><g transform=""><ellipse cx="1600.0" cy="180.0" rx="680" ry="520" fill="url(#g)"/><path d="M1209 998 L1798 1107" stroke="#101010" opacity="0.15" stroke-width="2"/><path d="M470 363 L1160 533" stroke="#f0f0f0" opacity="0.12" stroke-width="3"/><path d="M1191 632 L1682 723" stroke="#f01010" opacity="0.13" stroke-width="4"/><path d="M1513 514 L1886 607" stroke="#707070" opacity="0.15" stroke-width="2"/><path d="M803 985 L1106 1008" stroke="#f0f010" opacity="0.09" stroke-width="4"/><path d="M13 270 L246 303" stroke="#101010" opacity="0.19" stroke-width="2"/><path d="M832 711 L1404 763" stroke="#f0f0f0" opacity="0.06" stroke-width="1"/><path d="M1284 907 L1828 931" stroke="#f01010" opacity="0.10" stroke-width="1"/><path d="M336 1037 L932 1073" stroke="#707070" opacity="0.06" stroke-width="1"/><path d="M1331 699 L1962 770" stroke="#f0f010" opacity="0.09" stroke-width="4"/><path d="M1045 348 L1590 453" stroke="#101010" opacity="0.11" stroke-width="2"/><path d="M531 569 L842 640" stroke="#f0f0f0" opacity="0.09" stroke-width="4"/><path d="M338 542 L976 580" stroke="#f01010" opacity="0.08" stroke-width="3"/><path d="M286 489 L552 635" stroke="#707070" opacity="0.20" stroke-width="3"/><path d="M457 284 L854 441" stroke="#f0f010" opacity="0.15" stroke-width="2"/><path d="M1769 1001 L2358 1030" stroke="#101010" opacity="0.15" stroke-width="2"/><path d="M669 863 L1278 912" stroke="#f0f0f0" opacity="0.19" stroke-width="2"/><path d="M1611 645 L2002 676" stroke="#f01010" opacity="0.17" stroke-width="4"/><circle cx="1519.0" cy="123.0" r="79" fill="none" stroke="#f0f0f0" opacity="0.050" stroke-width="1"/><circle cx="1619.0" cy="91.0" r="227" fill="none" stroke="#f01010" opacity="0.068" stroke-width="2"/><circle cx="1547.0" cy="113.0" r="208" fill="none" stroke="#707070" opacity="0.086" stroke-width="3"/><circle cx="1560.0" cy="232.0" r="233" fill="none" stroke="#f0f010" opacity="0.104" stroke-width="1"/><circle cx="1560.0" cy="94.0" r="245" fill="none" stroke="#101010" opacity="0.122" stroke-width="2"/><circle cx="1536.0" cy="90.0" r="149" fill="none" stroke="#f0f0f0" opacity="0.140" stroke-width="3"/><circle cx="1487.0" cy="136.0" r="295" fill="none" stroke="#f01010" opacity="0.158" stroke-width="1"/></g></svg>